<svg width="84" height="84" viewBox="0 0 84 84" fill="none" xmlns="http://www.w3.org/2000/svg">
<rect width="84" height="84" rx="42" fill="#F7DF1E"/>
<g clip-path="url(#clip0_1954_155860)">
<path d="M64 20H20V64H64V20Z" fill="white"/>
<path d="M49.5575 54.3751C50.4438 55.8222 51.5969 56.8858 53.6362 56.8858C55.3494 56.8858 56.4438 56.0296 56.4438 54.8465C56.4438 53.4287 55.3194 52.9265 53.4337 52.1017L52.4 51.6582C49.4164 50.3871 47.4343 48.7947 47.4343 45.4284C47.4343 42.3274 49.797 39.9668 53.4896 39.9668C56.1184 39.9668 58.0083 40.8817 59.3702 43.2773L56.1505 45.3446C55.4416 44.0735 54.6769 43.5727 53.4896 43.5727C52.2785 43.5727 51.511 44.341 51.511 45.3446C51.511 46.585 52.2792 47.0871 54.0532 47.8554L55.0868 48.2982C58.5998 49.8046 60.5833 51.3404 60.5833 54.7934C60.5833 58.5159 57.6591 60.5553 53.7319 60.5553C49.892 60.5553 47.4113 58.7255 46.1974 56.3271L49.5575 54.3751ZM34.9516 54.7333C35.6011 55.8857 36.192 56.86 37.6125 56.86C38.971 56.86 39.8279 56.3285 39.8279 54.2619V40.2029H43.9625V54.3178C43.9625 58.5991 41.4524 60.5476 37.7885 60.5476C34.4781 60.5476 32.5609 58.8344 31.5859 56.771L34.9516 54.7333Z" fill="#F7DF1E"/>
</g>
<defs>
<clipPath id="clip0_1954_155860">
<rect width="44" height="44" fill="white" transform="translate(20 20)"/>
</clipPath>
</defs>
</svg>