<svg id="Layer_1" data-name="Layer 1" xmlns="http://www.w3.org/2000/svg" viewBox="0 0 60.89 60.89"><defs><style>.cls-1{fill:#207aba;}.cls-2{fill:none;stroke:#fff;stroke-miterlimit:10;}</style></defs><title>Storage</title><circle class="cls-1" cx="30.44" cy="30.44" r="30.44"/><path class="cls-2" d="M32,50.89c9.66,0,17.49-2.22,17.49-5V39.68l-0.35.25a15.33,15.33,0,0,1-4.27,1.82A49.37,49.37,0,0,1,32,43.27a49.36,49.36,0,0,1-12.87-1.52,15.33,15.33,0,0,1-4.27-1.82l-0.35-.25v6.25c0,2.74,7.83,5,17.49,5h0Zm0,0" transform="translate(-1.56 -1.56)"/><path class="cls-2" d="M32,41.43c9.33,0,17-2.07,17.46-4.68a1.4,1.4,0,0,0,0-.28v-6.3l-0.35.25A13.88,13.88,0,0,1,45.68,32l-0.81.25L44,32.48c-0.68.17-1.39,0.32-2.13,0.46a55.28,55.28,0,0,1-9.87.83,55.37,55.37,0,0,1-9.88-.83c-0.74-.14-1.46-0.29-2.13-0.46l-0.86-.23L18.32,32a13.88,13.88,0,0,1-3.46-1.57l-0.35-.25v6.3a1.4,1.4,0,0,0,0,.28C15,39.36,22.67,41.43,32,41.43h0Zm0,0" transform="translate(-1.56 -1.56)"/><path class="cls-2" d="M22.12,31.06c1,0.18,2,.34,3,0.47a57.84,57.84,0,0,0,6.84.39,57.85,57.85,0,0,0,6.84-.39c1.07-.13,2.08-0.29,3-0.47,4.32-.84,7.25-2.22,7.58-3.79a1.31,1.31,0,0,0,0-.3V18.07c0-2.74-7.83-5-17.49-5s-17.49,2.22-17.49,5V27a1.32,1.32,0,0,0,0,.3c0.33,1.57,3.25,3,7.57,3.79h0Zm11.76-3.8A1.88,1.88,0,1,1,32,25.38a1.88,1.88,0,0,1,1.88,1.88h0Zm0,0" transform="translate(-1.56 -1.56)"/><path class="cls-2" d="M14.52,18.07s16.86,7.43,35,0" transform="translate(-1.56 -1.56)"/></svg>