<?xml version="1.0" encoding="utf-8"?>
<!-- Svg Vector Icons : http://www.onlinewebfonts.com/icon -->
<!DOCTYPE svg PUBLIC "-//W3C//DTD SVG 1.1//EN" "http://www.w3.org/Graphics/SVG/1.1/DTD/svg11.dtd">
<svg version="1.1" xmlns="http://www.w3.org/2000/svg" xmlns:xlink="http://www.w3.org/1999/xlink" x="0px" y="0px" viewBox="0 0 1000 1000" enable-background="new 0 0 1000 1000" xml:space="preserve">
<metadata> Svg Vector Icons : http://www.onlinewebfonts.com/icon </metadata>
<g><path d="M373.4,392.1v32.2H216.9v68.9h138.4v35.3H216.9v67.8h156.6v33.5H407V392.1H373.4z"/><path d="M458.7,425.6H530c0,0,32.1,7,32.1,30.8c0,0,0,34.3-29.4,36.7h-74.1V425.6z"/><path d="M562.1,389.7c0,0,67.1,8.3,67.1,69.6c0,0,7,54.3-67.1,75.3l67.3,95.1h-67.3l-65.7-101.3h-37.7v101.3h205.5v-240H562.1z"/><path d="M715.9,425.6h64.3c0,0,39.1,7.4,37.7,33.7c0,0,9.8,44.5-39.1,51.5h-62.9V425.6z"/><path d="M510.4,389.7h308.3c0,0,50.9,6.5,50.9,51.3v46.1c0,0-16.8,53.1-67.1,55.9h-86.7v87.6l-205.5-0.9v359.7c0,0,455.7-6.7,479.5-496.3c0,0,21-421.1-479.5-482.6V389.7z"/><path d="M510.4,389.7H165.2v240h345.3v359.7c0,0-476.7,22.7-500.4-496.3c0,0-2.8-451.9,500.4-482.6V389.7z"/></g>
</svg>