<svg width="83" height="83" viewBox="0 0 83 83" fill="none" xmlns="http://www.w3.org/2000/svg">
<rect width="83" height="83" rx="41.5" fill="#DE3423"/>
<path fill-rule="evenodd" clip-rule="evenodd" d="M52.3864 17.3279C44.2895 19.6783 31.4441 21.0048 24.5234 21.0048V34.2827C24.5256 34.3284 24.5428 34.372 24.5723 34.4068C29.2951 34.4068 43.8751 32.8554 52.6721 30.4247C54.2063 30.0324 55.7106 29.5304 57.1735 28.9224C58.2493 28.4363 58.9442 27.9243 58.9442 27.3917V14C58.9339 15.2619 55.6627 16.3789 52.3864 17.3279Z" fill="white"/>
<path fill-rule="evenodd" clip-rule="evenodd" d="M52.3864 34.5466C47.5401 35.9507 41.0003 36.9953 35.0422 37.6056C31.0426 38.0167 27.3056 38.2313 24.5234 38.2313V51.4989C24.5256 51.5445 24.5428 51.5882 24.5723 51.623C29.2951 51.623 43.8751 50.0715 52.6721 47.6435C54.2059 47.25 55.7102 46.748 57.1735 46.1412C58.2493 45.6525 58.9442 45.1431 58.9442 44.6104V31.2188C58.9339 32.478 55.6627 33.5951 52.3864 34.5466Z" fill="white"/>
<path fill-rule="evenodd" clip-rule="evenodd" d="M52.385 51.7744C47.5387 53.1785 40.9989 54.2205 35.0408 54.8333C31.0361 55.2445 27.2939 55.4591 24.5117 55.4591V68.8404C29.1856 68.8404 43.8403 67.3019 52.6604 64.8609C55.911 63.9611 58.9325 62.9371 58.9325 61.8252V48.4336C58.9325 49.7058 55.6613 50.8125 52.385 51.7744Z" fill="white"/>
</svg>