<?xml version="1.0" encoding="iso-8859-1"?>
<!-- Generator: Adobe Illustrator 19.0.0, SVG Export Plug-In . SVG Version: 6.00 Build 0)  -->
<svg version="1.1" id="Layer_1" xmlns="http://www.w3.org/2000/svg" xmlns:xlink="http://www.w3.org/1999/xlink" x="0px" y="0px"
	 viewBox="0 0 512.002 512.002" style="enable-background:new 0 0 512.002 512.002;" xml:space="preserve">
<circle style="fill:#2D4452;" cx="256.001" cy="255.999" r="255.999"/>
<path style="fill:#233540;" d="M484.85,370.712c-0.504-1.224-1.008-2.452-1.54-3.664c-1.728-4.888-3.708-9.656-5.916-14.288
	c-0.584-1.444-1.204-2.868-1.824-4.288c-1.22-3.46-2.588-6.844-4.056-10.18c-1.228-3.488-2.612-6.908-4.088-10.264
	c-1.22-3.46-2.588-6.848-4.059-10.188c-1.22-3.46-2.584-6.844-4.056-10.176c-1.224-3.468-2.592-6.86-4.068-10.204
	c-1.224-3.48-2.596-6.888-4.08-10.248c-1.224-3.468-2.592-6.864-4.068-10.212c-1.728-4.892-3.712-9.668-5.92-14.308
	c-0.58-1.44-1.196-2.856-1.816-4.268c-1.224-3.472-2.592-6.864-4.068-10.212c-1.228-3.472-2.596-6.868-4.076-10.212
	c-1.216-3.456-2.584-6.84-4.052-10.172c-1.228-3.492-2.608-6.912-4.092-10.28c-1.22-3.456-2.584-6.844-4.056-10.18
	c-1.22-3.456-2.584-6.84-4.056-10.176c-1.228-3.48-2.6-6.888-4.084-10.244c-1.728-4.904-3.712-9.684-5.928-14.336
	c-0.58-1.428-1.184-2.832-1.804-4.24c-1.216-3.456-2.584-6.844-4.056-10.176c-1.228-3.48-2.596-6.888-4.08-10.248
	c-1.224-3.464-2.592-6.855-4.068-10.2c-2.452-6.968-5.416-13.696-8.856-20.14c-22.48-47.928-70.12-81.608-126.276-81.608
	c-78.384,0-139.804,65.608-139.804,144c0,9.244,0.828,18.18,2.388,26.792c0.116,0.724,0.26,1.436,0.396,2.156
	c1.9,11.816,5.216,22.988,9.832,33.44c1.212,3.512,2.584,6.936,4.072,10.304c1.208,3.516,2.584,6.944,4.076,10.312
	c1.204,3.512,2.58,6.932,4.064,10.304c1.912,5.568,4.184,10.94,6.788,16.128c0.284,0.696,0.628,1.36,0.928,2.044
	c1.22,3.528,2.588,6.972,4.084,10.348c1.204,3.504,2.58,6.921,4.06,10.28c1.208,3.512,2.584,6.928,4.064,10.288
	c1.212,3.524,2.584,6.956,4.08,10.336c1.208,3.516,2.584,6.936,4.068,10.299c1.212,3.52,2.584,6.944,4.076,10.316
	c1.204,3.516,2.584,6.936,4.068,10.304c1.924,5.624,4.236,11.052,6.868,16.28c0.268,0.648,0.584,1.268,0.872,1.912
	c1.204,3.512,2.58,6.932,4.064,10.296c1.204,3.512,2.58,6.932,4.064,10.301c1.216,3.536,2.596,6.984,4.092,10.368
	c0.92,2.712,1.932,5.376,3.028,7.996v0.464v0.772v1.272v0.688l36.32,87.172c6.472,0.496,13.02,0.828,19.648,0.828
	C356.13,512,442.773,454.48,484.85,370.712z"/>
<path style="fill:#FFF3D9;" d="M396.001,180c0-78.392-61.808-144-140.196-144c-78.384,0-139.804,65.608-139.804,144
	c0,46.392,20,85.392,56,111.292v28.58c0,15.612,11.744,28.128,27.352,28.128h113.552c15.608,0,27.096-12.516,27.096-28.128v-28.58
	C376.002,265.392,396.001,226.392,396.001,180z"/>
<path style="fill:#242424;" d="M284.002,456c0,10.796-12.188,20-27.876,20c-15.688,0-28.124-9.204-28.124-20
	s12.436-19.108,28.124-19.108S284.002,445.204,284.002,456z"/>
<path style="fill:#CCCCCC;" d="M200.001,348v71.228l16,28.772c0,7.848,16.764,13.804,40.284,13.804
	c23.524,0,39.716-5.956,39.716-13.804l16-28.772V348L200.001,348L200.001,348z"/>
<path style="fill:#E6E6E6;" d="M228.001,448l-16-28v-72h-12v72l16,28c0,7.848,16.764,13.804,40.284,13.804
	c2.424,0,4.32-0.108,6.628-0.236C242.794,460.437,228.001,455.036,228.001,448z"/>
<path style="fill:#B3B3B3;" d="M300.001,348v72l-16,28c0,7.036-14.523,12.436-34.648,13.572c2.308,0.124,4.512,0.24,6.936,0.24
	c23.524,0,39.712-5.956,39.712-13.804l16-28v-72.008h-12V348z"/>
<g>
	<path style="fill:#CCCCCC;" d="M241.934,284.392c-2.404,0-4.756-1.232-6.084-3.444l-42.584-70.968
		c-2.028-3.364-0.928-7.728,2.436-9.744c3.344-1.984,7.708-0.924,9.736,2.436l42.584,70.964c2.024,3.36,0.924,7.724-2.432,9.74
		C244.441,284.064,243.182,284.392,241.934,284.392z"/>
	<path style="fill:#CCCCCC;" d="M270.321,284.392c-1.252,0-2.512-0.328-3.648-1.016c-3.368-2.016-4.456-6.38-2.436-9.74
		l42.584-70.964c2.036-3.364,6.416-4.42,9.728-2.436c3.38,2.016,4.464,6.38,2.44,9.744l-42.584,70.956
		C275.078,283.16,272.717,284.392,270.321,284.392z"/>
	<path style="fill:#CCCCCC;" d="M227.741,224.068c-2.776,0-5.34,0.3-6.48-2.276L208.934,196h-9.584c-3.916,0-7.088-4.08-7.088-8
		s3.172-8,7.088-8h14.192c2.8,0,5.356,0.616,6.488,3.184l5.532,11.94l9.452-41.576c0.684-2.964,3.156-5.292,6.184-5.608
		c3.172-0.264,5.916,1.28,7.181,4.032l19.64,42.628l9.583-42.172c0.66-2.964,3.16-5.18,6.184-5.496c3.2-0.292,5.928,2.38,7.192,5.14
		L303.266,180h9.632c3.92,0,7.092,4.08,7.092,8s-3.172,8-7.092,8h-14.196c-2.768,0-5.292-3.56-6.456-6.08l-5.456-12.924
		l-9.556,41.584c-0.668,2.96-3.16,4.928-6.184,5.244c-3.068,0.344-5.908-1.448-7.179-4.212l-19.664-42.772l-9.552,41.74
		c-0.676,2.98-3.192,5.176-6.248,5.468C228.197,224.064,227.966,224.068,227.741,224.068z"/>
</g>
<path style="fill:#F5F5F5;" d="M224.002,348v-70.708c0-7.804,10.128-13.292,17.932-13.292h28.388c7.8,0,17.68,5.488,17.68,13.292
	V348H224.002z"/>
<path style="fill:#E6E6E6;" d="M270.321,264h-14.196c7.808,0,11.876,5.488,11.876,13.292v70.708h20v-70.708
	C288.001,269.488,278.121,264,270.321,264z"/>
<g>
	<path style="fill:#FFFFFF;" d="M256.126,264h-14.192c-7.804,0-17.932,5.488-17.932,13.292v70.708h20v-70.708
		C244.001,269.488,248.326,264,256.126,264z"/>
	<path style="fill:#FFFFFF;" d="M189.786,88.072c-24.88,18.024-42.204,45.704-46.224,79.928h43.04
		c4.084-19.556,16.708-38.152,33.88-48.176L189.786,88.072z"/>
</g>
<g>
</g>
<g>
</g>
<g>
</g>
<g>
</g>
<g>
</g>
<g>
</g>
<g>
</g>
<g>
</g>
<g>
</g>
<g>
</g>
<g>
</g>
<g>
</g>
<g>
</g>
<g>
</g>
<g>
</g>
</svg>
